<svg width="43" height="43" viewBox="0 0 43 43" fill="none" xmlns="http://www.w3.org/2000/svg">
    <path
        d="M13.7 28.1301V14.8701C13.7 14.2239 14.2238 13.7001 14.87 13.7001H28.13C28.7762 13.7001 29.3 14.2239 29.3 14.8701V28.1301C29.3 28.7763 28.7762 29.3001 28.13 29.3001H14.87C14.2238 29.3001 13.7 28.7763 13.7 28.1301Z"
        stroke="black" stroke-width="1.5" stroke-linecap="round" stroke-linejoin="round" />
    <path
        d="M37.1 7.0699V35.9299C37.1 36.5761 36.5763 37.0999 35.93 37.0999H7.07002C6.42385 37.0999 5.90002 36.5761 5.90002 35.9299V7.0699C5.90002 6.42373 6.42385 5.8999 7.07002 5.8999H35.93C36.5763 5.8999 37.1 6.42373 37.1 7.0699Z"
        stroke="black" stroke-width="1.5" stroke-linecap="round" stroke-linejoin="round" />
    <path d="M31.25 5.9V2" stroke="black" stroke-width="1.5" stroke-linecap="round"
        stroke-linejoin="round" />
    <path d="M21.5 5.9V2" stroke="black" stroke-width="1.5" stroke-linecap="round"
        stroke-linejoin="round" />
    <path d="M11.75 5.9V2" stroke="black" stroke-width="1.5" stroke-linecap="round"
        stroke-linejoin="round" />
    <path d="M11.75 37.1V41" stroke="black" stroke-width="1.5" stroke-linecap="round"
        stroke-linejoin="round" />
    <path d="M21.5 37.1V41" stroke="black" stroke-width="1.5" stroke-linecap="round"
        stroke-linejoin="round" />
    <path d="M31.25 37.1V41" stroke="black" stroke-width="1.5" stroke-linecap="round"
        stroke-linejoin="round" />
    <path d="M37.1 31.25H41" stroke="black" stroke-width="1.5" stroke-linecap="round"
        stroke-linejoin="round" />
    <path d="M37.1 21.5H41" stroke="black" stroke-width="1.5" stroke-linecap="round"
        stroke-linejoin="round" />
    <path d="M37.1 11.75H41" stroke="black" stroke-width="1.5" stroke-linecap="round"
        stroke-linejoin="round" />
    <path d="M5.9 31.25H2" stroke="black" stroke-width="1.5" stroke-linecap="round"
        stroke-linejoin="round" />
    <path d="M5.9 21.5H2" stroke="black" stroke-width="1.5" stroke-linecap="round"
        stroke-linejoin="round" />
    <path d="M5.9 11.75H2" stroke="black" stroke-width="1.5" stroke-linecap="round"
        stroke-linejoin="round" />
</svg>
    