<svg xmlns="http://www.w3.org/2000/svg" width="14" height="15" viewBox="0 0 14 15" fill="none">
    <path
        d="M13.722 7.09537C13.1727 5.93819 12.519 4.99443 11.761 4.26412L10.966 5.05912C11.6143 5.67865 12.179 6.48912 12.6673 7.4985C11.3673 10.1891 9.52197 11.4672 7.00009 11.4672C6.24311 11.4672 5.54587 11.3507 4.90837 11.1176L4.04697 11.979C4.93238 12.3878 5.91676 12.5922 7.00009 12.5922C10.0032 12.5922 12.2438 11.0282 13.722 7.90006C13.7814 7.77426 13.8122 7.63685 13.8122 7.49772C13.8122 7.35858 13.7814 7.22118 13.722 7.09537ZM12.7287 2.08537L12.0626 1.4185C12.051 1.40687 12.0372 1.39765 12.022 1.39136C12.0068 1.38507 11.9906 1.38184 11.9742 1.38184C11.9577 1.38184 11.9415 1.38507 11.9263 1.39136C11.9111 1.39765 11.8973 1.40687 11.8857 1.4185L10.1768 3.12662C9.23462 2.64537 8.17571 2.40475 7.00009 2.40475C3.99697 2.40475 1.75634 3.96881 0.278215 7.09693C0.218802 7.22274 0.187988 7.36015 0.187988 7.49928C0.187988 7.63841 0.218802 7.77582 0.278215 7.90162C0.868736 9.14537 1.57967 10.1423 2.41103 10.8924L0.75759 12.5454C0.734166 12.5688 0.721008 12.6006 0.721008 12.6337C0.721008 12.6669 0.734166 12.6987 0.75759 12.7221L1.42462 13.3891C1.44806 13.4125 1.47984 13.4257 1.51298 13.4257C1.54612 13.4257 1.5779 13.4125 1.60134 13.3891L12.7287 2.26225C12.7403 2.25064 12.7495 2.23685 12.7558 2.22168C12.7621 2.2065 12.7653 2.19024 12.7653 2.17381C12.7653 2.15738 12.7621 2.14112 12.7558 2.12594C12.7495 2.11077 12.7403 2.09698 12.7287 2.08537ZM1.3329 7.4985C2.63447 4.80787 4.47978 3.52975 7.00009 3.52975C7.85228 3.52975 8.62712 3.676 9.33009 3.97334L8.23165 5.07178C7.71145 4.79422 7.1158 4.69121 6.5326 4.77794C5.94939 4.86468 5.4095 5.13656 4.99258 5.55348C4.57565 5.97041 4.30377 6.5103 4.21704 7.09351C4.1303 7.67671 4.23331 8.27235 4.51087 8.79256L3.20743 10.096C2.48603 9.45928 1.86415 8.59662 1.3329 7.4985ZM5.18759 7.4985C5.18786 7.22297 5.25313 6.9514 5.37808 6.70584C5.50303 6.46027 5.68414 6.24765 5.9067 6.08523C6.12926 5.92281 6.387 5.81519 6.65898 5.77109C6.93095 5.727 7.20949 5.74769 7.47197 5.83147L5.27056 8.03287C5.21538 7.86012 5.18739 7.67985 5.18759 7.4985Z"
        fill="black" fill-opacity="0.45" />
    <path
        d="M6.93786 9.25109C6.8838 9.25109 6.83052 9.24859 6.7777 9.24375L5.95239 10.0691C6.44878 10.2592 6.98961 10.3014 7.5095 10.1907C8.02939 10.08 8.50608 9.82103 8.88194 9.44517C9.2578 9.06931 9.51674 8.59262 9.62746 8.07273C9.73818 7.55285 9.69593 7.01202 9.50583 6.51562L8.68052 7.34094C8.68536 7.39375 8.68786 7.44703 8.68786 7.50109C8.68798 7.73094 8.6428 7.95856 8.5549 8.17094C8.467 8.38331 8.3381 8.57628 8.17557 8.73881C8.01305 8.90133 7.82008 9.03023 7.6077 9.11813C7.39533 9.20604 7.16771 9.25122 6.93786 9.25109Z"
        fill="black" fill-opacity="0.45" />
</svg>