<svg width="58" height="58" viewBox="0 0 58 58" fill="none" xmlns="http://www.w3.org/2000/svg">
<circle cx="29" cy="29" r="29" fill="#2F3F9A"/>
<path d="M29.5251 37.9933C34.2019 37.9933 37.9933 34.2019 37.9933 29.5251C37.9933 24.8482 34.2019 21.0569 29.5251 21.0569C24.8482 21.0569 21.0569 24.8482 21.0569 29.5251C21.0569 34.2019 24.8482 37.9933 29.5251 37.9933Z" fill="#2F3F9A" stroke="#F2F2F2" stroke-width="2.11705" stroke-linecap="round" stroke-linejoin="round"/>
<path d="M43.6387 29.5249H45.05H43.6387Z" fill="#2F3F9A"/>
<path d="M43.6387 29.5249H45.05" stroke="#F2F2F2" stroke-width="2.11705" stroke-linecap="round" stroke-linejoin="round"/>
<path d="M29.525 15.4114V14V15.4114Z" fill="#2F3F9A"/>
<path d="M29.525 15.4114V14" stroke="#F2F2F2" stroke-width="2.11705" stroke-linecap="round" stroke-linejoin="round"/>
<path d="M29.525 45.05V43.6387V45.05Z" fill="#2F3F9A"/>
<path d="M29.525 45.05V43.6387" stroke="#F2F2F2" stroke-width="2.11705" stroke-linecap="round" stroke-linejoin="round"/>
<path d="M40.8159 40.8159L39.4045 39.4045L40.8159 40.8159Z" fill="#2F3F9A"/>
<path d="M40.8159 40.8159L39.4045 39.4045" stroke="#F2F2F2" stroke-width="2.11705" stroke-linecap="round" stroke-linejoin="round"/>
<path d="M40.8159 18.2341L39.4045 19.6455L40.8159 18.2341Z" fill="#2F3F9A"/>
<path d="M40.8159 18.2341L39.4045 19.6455" stroke="#F2F2F2" stroke-width="2.11705" stroke-linecap="round" stroke-linejoin="round"/>
<path d="M18.2341 40.8159L19.6455 39.4045L18.2341 40.8159Z" fill="#2F3F9A"/>
<path d="M18.2341 40.8159L19.6455 39.4045" stroke="#F2F2F2" stroke-width="2.11705" stroke-linecap="round" stroke-linejoin="round"/>
<path d="M18.2341 18.2341L19.6455 19.6455L18.2341 18.2341Z" fill="#2F3F9A"/>
<path d="M18.2341 18.2341L19.6455 19.6455" stroke="#F2F2F2" stroke-width="2.11705" stroke-linecap="round" stroke-linejoin="round"/>
<path d="M14 29.5249H15.4114H14Z" fill="#2F3F9A"/>
<path d="M14 29.5249H15.4114" stroke="#F2F2F2" stroke-width="2.11705" stroke-linecap="round" stroke-linejoin="round"/>
</svg>
