<svg width="43" height="35" viewBox="0 0 43 35" fill="none" xmlns="http://www.w3.org/2000/svg">
    <path
        d="M5.90002 20.525V19.55C5.90002 9.85741 12.8844 2 21.5 2C30.1157 2 37.1 9.85741 37.1 19.55V20.525"
        stroke="black" stroke-width="1.5" stroke-linecap="round" stroke-linejoin="round" />
    <path
        d="M2 28.205V24.545C2 22.7555 3.21795 21.1955 4.95411 20.7614L5.9 20.5249L8.34624 19.9134C9.08468 19.7289 9.8 20.2874 9.8 21.0485V31.7015C9.8 32.4626 9.08468 33.0211 8.34624 32.8366L4.95411 31.9886C3.21795 31.5545 2 29.9945 2 28.205Z"
        stroke="black" stroke-width="1.5" stroke-linecap="round" stroke-linejoin="round" />
    <path
        d="M41 28.205V24.545C41 22.7555 39.782 21.1955 38.0459 20.7614L37.1 20.5249L34.6537 19.9134C33.9152 19.7289 33.2 20.2874 33.2 21.0485V31.7015C33.2 32.4626 33.9152 33.0211 34.6537 32.8366L38.0459 31.9886C39.782 31.5545 41 29.9945 41 28.205Z"
        stroke="black" stroke-width="1.5" stroke-linecap="round" stroke-linejoin="round" />
</svg>
    